<?xml version="1.0" encoding="UTF-8" standalone="no"?>
<svg
   version="1.1"
   viewBox="0 0 73 71.5"
   width="146"
   height="143"
   id="svg16"
   sodipodi:docname="approx.svg"
   inkscape:version="1.2.2 (b0a8486541, 2022-12-01)"
   xmlns:inkscape="http://www.inkscape.org/namespaces/inkscape"
   xmlns:sodipodi="http://sodipodi.sourceforge.net/DTD/sodipodi-0.dtd"
   xmlns="http://www.w3.org/2000/svg"
   xmlns:svg="http://www.w3.org/2000/svg">
  <sodipodi:namedview
     id="namedview18"
     pagecolor="#ffffff"
     bordercolor="#000000"
     borderopacity="0.25"
     inkscape:showpageshadow="2"
     inkscape:pageopacity="0.0"
     inkscape:pagecheckerboard="0"
     inkscape:deskcolor="#d1d1d1"
     showgrid="false"
     inkscape:zoom="1.6503497"
     inkscape:cx="73.014831"
     inkscape:cy="71.5"
     inkscape:window-width="1472"
     inkscape:window-height="851"
     inkscape:window-x="0"
     inkscape:window-y="32"
     inkscape:window-maximized="1"
     inkscape:current-layer="svg16" />
  <!-- svg-source:excalidraw -->
  <metadata
     id="metadata2" />
  <defs
     id="defs6">
    <style
       class="style-fonts"
       id="style4" />
  </defs>
  <path
     fill="#1e1e1e"
     d="m 5.2,23.79 q 0,0 0.81,-1.89 0.81,-1.9 2.24,-5.11 1.43,-3.22 3.16,-5.86 1.73,-2.64 4.83,-4.14 3.11,-1.5 5.68,-2.1 2.56,-0.6 4.8,-0.82 2.23,-0.23 5,0.47 2.77,0.71 5.12,2.2 2.35,1.49 3.99,3.13 1.64,1.64 2.77,3.48 1.13,1.85 1.88,4.89 0.76,3.04 3.38,2.61 2.63,-0.43 5.31,-2.88 2.68,-2.45 2.64,-2.49 -0.04,-0.04 0.72,-0.94 0.76,-0.9 1.78,-1.5 1.01,-0.6 2.16,-0.86 1.15,-0.25 2.32,-0.12 1.17,0.13 2.24,0.63 1.07,0.5 1.92,1.31 0.85,0.81 1.4,1.85 0.55,1.05 0.74,2.21 0.19,1.16 -0.01,2.32 -0.19,1.17 -0.75,2.21 -0.55,1.04 -1.41,1.84 -0.85,0.81 -1.92,1.3 -1.07,0.49 -2.25,0.61 -1.17,0.12 -2.32,-0.13 -1.15,-0.25 -2.15,-0.86 -1.01,-0.61 -1.77,-1.51 -0.76,-0.9 -1.2,-1.99 -0.43,-1.1 -0.49,-2.27 -0.06,-1.18 0.26,-2.31 0.31,-1.14 0.98,-2.11 0.66,-0.98 1.6,-1.69 0.94,-0.71 2.06,-1.08 1.12,-0.37 2.29,-0.37 1.18,0 2.3,0.38 1.11,0.38 2.05,1.1 0.93,0.71 1.59,1.69 0.66,0.98 0.97,2.11 0.32,1.14 0.25,2.31 -0.07,1.18 -0.51,2.27 -0.44,1.1 -0.44,1.09 0,0 -3.31,3.37 -3.31,3.38 -5.54,5.13 -2.24,1.75 -4.61,2.87 -2.37,1.12 -5.55,1.45 -3.18,0.33 -6.84,-0.56 -3.66,-0.89 -5.56,-2.94 -1.89,-2.04 -3.11,-4.08 -1.21,-2.04 -1.97,-5.13 -0.76,-3.09 -2.2,-4.75 -1.43,-1.67 -4,-1.51 -2.57,0.15 -4.65,1.05 -2.08,0.89 -3.67,3.88 -1.58,2.98 -2.5,4.82 -0.91,1.84 -1.25,2.38 -0.33,0.55 -0.79,0.99 -0.45,0.45 -1,0.77 -0.55,0.33 -1.16,0.51 -0.61,0.19 -1.25,0.22 Q 9.64,31.27 9.01,31.15 8.38,31.03 7.8,30.76 7.23,30.5 6.73,30.1 6.23,29.7 5.84,29.19 5.45,28.69 5.2,28.1 4.94,27.52 4.83,26.89 4.72,26.26 4.77,25.64 4.81,25 5.01,24.39 5.2,23.79 5.2,23.79 Z"
     id="path8"
     style="stroke:none" />
  <path
     fill="#1e1e1e"
     d="m 8.78,56.3 q 0,0 0.97,-2.17 0.98,-2.17 2.03,-4.17 1.05,-2 2.77,-4.1 1.72,-2.1 3.63,-3.92 1.9,-1.81 4.63,-3.4 2.72,-1.59 5.68,-1.4 2.96,0.19 5.07,1.63 2.12,1.44 3.31,4.46 1.19,3.02 2.04,5.89 0.84,2.87 1.69,4.88 0.86,2.01 3.62,0.2 2.77,-1.81 5.8,-3.06 3.02,-1.25 4.89,-1.51 1.87,-0.26 3,-0.52 1.13,-0.26 2.29,-0.14 1.15,0.11 2.21,0.59 1.05,0.48 1.9,1.27 0.85,0.79 1.4,1.81 0.55,1.02 0.75,2.16 0.2,1.14 0.02,2.29 -0.17,1.14 -0.71,2.16 -0.53,1.03 -1.37,1.84 -0.83,0.8 -1.88,1.3 -1.05,0.49 -2.2,0.63 -1.15,0.13 -2.28,-0.11 -1.14,-0.24 -2.14,-0.82 -1,-0.59 -1.75,-1.47 -0.76,-0.88 -1.2,-1.95 -0.44,-1.06 -0.51,-2.22 -0.08,-1.16 0.23,-2.28 0.3,-1.12 0.94,-2.08 0.64,-0.97 1.56,-1.68 0.91,-0.71 2.01,-1.09 1.09,-0.38 2.25,-0.39 1.16,-0.01 2.26,0.35 1.11,0.37 2.04,1.06 0.92,0.69 1.58,1.65 0.66,0.95 0.98,2.06 0.32,1.12 0.27,2.28 -0.05,1.15 -0.47,2.23 -0.42,1.08 -1.17,1.97 -0.74,0.89 -1.73,1.49 -0.99,0.61 -0.98,0.61 0,0 -2.66,0.23 -2.65,0.24 -6.29,1.9 -3.64,1.65 -5.89,2.45 -2.25,0.79 -5.16,0.91 -2.91,0.12 -5.52,-0.56 -2.6,-0.68 -4.61,-2.9 -2.01,-2.22 -3.26,-5.32 -1.25,-3.09 -0.95,-6.81 0.3,-3.72 -1.54,-2.61 -1.85,1.11 -3.94,3.81 -2.09,2.7 -3.13,4.83 -1.04,2.14 -1.37,2.67 -0.33,0.54 -0.78,0.98 -0.45,0.44 -1,0.75 -0.54,0.32 -1.14,0.5 -0.61,0.18 -1.23,0.21 Q 13.12,63.7 12.5,63.58 11.88,63.45 11.31,63.19 10.74,62.92 10.26,62.53 9.77,62.13 9.38,61.63 9,61.13 8.75,60.56 8.5,59.98 8.4,59.36 8.29,58.74 8.34,58.12 8.39,57.49 8.58,56.9 q 0.2,-0.6 0.2,-0.6 z"
     id="path12"
     style="stroke:none" />
</svg>
