<?xml version="1.0" encoding="UTF-8" standalone="no"?>
<svg
   version="1.1"
   viewBox="0 0 40.5 67"
   width="81"
   height="134"
   id="svg2"
   xmlns="http://www.w3.org/2000/svg"
   xmlns:svg="http://www.w3.org/2000/svg">
  <path
     id="path1"
     style="stroke:none"
     d="m 28.410156,5.0097656 c -1.592207,0.064764 -3.034439,0.8493381 -4.516229,1.3589012 -3.648257,1.5836335 -7.024615,3.9532982 -9.374396,7.2016452 -2.98378,3.828081 -5.0784823,8.256916 -6.7546689,12.787903 -1.393436,4.02416 -1.9673259,8.270651 -2.5591404,12.470113 -0.3562525,4.136023 0.439523,8.31752 1.8844321,12.187923 1.9136242,5.061779 5.9502432,9.519295 11.1995212,11.153821 2.567476,0.731693 5.267283,0.723114 7.910704,0.931929 1.469988,0.03921 2.948502,0.148588 4.416019,0.108687 2.039488,-0.167331 4.054067,-1.171067 5.123873,-2.970418 1.636776,-2.543956 1.004514,-6.226636 -1.406934,-8.060037 -1.377766,-1.169239 -3.233277,-1.427004 -4.978814,-1.405631 -2.971745,-0.134672 -6.119052,0.237923 -8.894485,-1.054928 -2.143762,-1.199345 -3.265725,-3.578109 -4.105082,-5.779149 -0.182212,-0.825207 -1.164103,-2.54194 0.389105,-2.049084 4.622991,0.247289 9.249087,0.597555 13.876937,0.636729 1.807655,-0.180352 3.613267,-0.971771 4.678674,-2.495664 1.821942,-2.337958 1.442221,-5.977886 -0.772252,-7.928107 -1.348686,-1.304572 -3.285734,-1.687649 -5.102888,-1.600241 -4.204619,0.04712 -8.397987,0.382168 -12.595333,0.601215 0.867725,-2.427604 2.012198,-4.746199 3.089843,-7.085034 1.43751,-2.527308 3.448974,-4.695146 5.594756,-6.636952 1.231564,-1.158388 2.772827,-1.856622 4.318601,-2.48268 1.687564,-0.6254 3.170588,-1.981202 3.540159,-3.798576 0.657826,-2.5882287 -1.156411,-5.4512508 -3.77285,-5.9723442 -0.388842,-0.09251 -0.790083,-0.1338477 -1.189552,-0.1200212 z" />
</svg>
