<?xml version="1.0" encoding="UTF-8" standalone="no"?>
<svg
   version="1.1"
   viewBox="0 0 66.57856663491748 88.44197546355281"
   width="133.15713326983496"
   height="176.88395092710562"
   id="svg2"
   sodipodi:docname="geq.svg"
   inkscape:version="1.4.2 (ebf0e940d0, 2025-05-08)"
   xmlns:inkscape="http://www.inkscape.org/namespaces/inkscape"
   xmlns:sodipodi="http://sodipodi.sourceforge.net/DTD/sodipodi-0.dtd"
   xmlns="http://www.w3.org/2000/svg"
   xmlns:svg="http://www.w3.org/2000/svg">
  <sodipodi:namedview
     id="namedview2"
     pagecolor="#ffffff"
     bordercolor="#000000"
     borderopacity="0.25"
     inkscape:showpageshadow="2"
     inkscape:pageopacity="0.0"
     inkscape:pagecheckerboard="0"
     inkscape:deskcolor="#d1d1d1"
     inkscape:zoom="3.3807475"
     inkscape:cx="66.553328"
     inkscape:cy="88.441978"
     inkscape:window-width="1472"
     inkscape:window-height="851"
     inkscape:window-x="0"
     inkscape:window-y="0"
     inkscape:window-maximized="1"
     inkscape:current-layer="svg2" />
  <!-- svg-source:excalidraw -->
  <metadata
     id="metadata1" />
  <defs
     id="defs1">
    <style
       class="style-fonts"
       id="style1" />
  </defs>
  <path
     id="path4"
     style="fill:#1e1e1e"
     d="M 16.291015 5.2578124 C 16.102682 5.2528124 15.915182 5.2602723 15.728515 5.2802733 C 15.341849 5.3136063 14.968398 5.39694 14.608398 5.5302733 C 14.241731 5.65694 13.899101 5.8236066 13.579101 6.0302733 C 13.259101 6.2436066 12.968984 6.4895311 12.708984 6.7695311 C 12.442317 7.0495311 12.214987 7.3601951 12.02832 7.7001951 C 11.841653 8.0335285 11.698633 8.3864321 11.598633 8.7597654 C 11.498633 9.1330988 11.445143 9.5096482 11.438476 9.8896482 C 11.425146 10.269648 11.462166 10.646198 11.548828 11.019531 C 11.628828 11.392864 11.755377 11.752942 11.928711 12.099609 C 12.095377 12.446276 12.30526 12.766237 12.558593 13.05957 C 12.80526 13.352903 13.082005 13.613177 13.388672 13.839843 C 13.702005 14.06651 14.672161 14.63957 16.298828 15.55957 C 17.932161 16.486237 19.805611 17.483138 21.918945 18.549804 C 24.032278 19.609804 26.779179 20.862903 30.159179 22.30957 C 33.545846 23.74957 36.125103 24.886393 37.898437 25.719726 C 39.665103 26.546393 41.345142 27.303567 42.938476 27.990234 C 44.531809 28.670234 46.222121 29.676432 48.008788 31.009765 C 49.788788 32.343098 50.008944 33.546783 48.668944 34.620116 C 47.328944 35.69345 46.015181 36.663606 44.728515 37.530273 C 43.435181 38.396939 41.605924 39.330077 39.239257 40.330077 C 36.87259 41.323411 34.435377 42.243176 31.92871 43.089843 C 29.42871 43.936509 27.458554 44.662864 26.018554 45.26953 C 24.585221 45.86953 23.215846 46.489882 21.909179 47.129882 C 20.609179 47.769882 18.811888 48.743137 16.518554 50.049804 C 14.231888 51.35647 12.505534 52.442902 11.338867 53.309569 C 10.165534 54.182902 9.5791013 54.617017 9.5791013 54.61035 L 8.9091795 55.339842 C 8.8354685 55.419052 8.7680273 55.50248 8.6992185 55.58496 C 8.383826 55.963013 8.1196321 56.375553 7.9072264 56.822264 C 7.8851634 56.868664 7.859819 56.912814 7.838867 56.95996 C 7.814814 57.01408 7.7978164 57.070392 7.7753904 57.124999 C 7.7315934 57.229951 7.6919224 57.336143 7.6542967 57.443358 C 7.6313987 57.509288 7.6075199 57.574979 7.5869139 57.6416 C 7.5298389 57.824814 7.4779885 58.010541 7.4384764 58.200194 C 7.3997304 58.388112 7.3722933 58.576166 7.3515623 58.764647 C 7.3482723 58.793297 7.341772 58.820848 7.338867 58.849608 C 7.336167 58.879038 7.340177 58.908099 7.3378905 58.937499 C 7.3156335 59.213109 7.3109553 59.488812 7.3271483 59.765624 C 7.3299283 59.814194 7.334918 59.862634 7.338867 59.911131 C 7.345457 59.990751 7.3486373 60.070675 7.3583983 60.150389 C 7.3701553 60.246409 7.3999395 60.33692 7.4160155 60.431639 C 7.4361255 60.550955 7.4415128 60.671182 7.4687498 60.790038 C 7.4915508 60.889538 7.5211929 60.98642 7.5488279 61.083983 C 7.5535379 61.100533 7.5576478 61.117278 7.5624998 61.133788 C 7.6021608 61.269317 7.6472378 61.402405 7.6962889 61.534178 C 7.7028189 61.551768 7.7091261 61.569373 7.7158201 61.586913 C 7.7598401 61.701785 7.8081641 61.814761 7.8593748 61.926756 C 7.8732598 61.957466 7.8840213 61.98899 7.8984373 62.01953 C 7.9043173 62.0317 7.9120196 62.042566 7.9179686 62.054686 C 8.0063836 62.236437 8.1012545 62.415817 8.2089842 62.589842 C 8.2221002 62.611032 8.2395845 62.628423 8.2529295 62.649413 C 8.4013936 62.883609 8.5614522 63.10892 8.7402342 63.321288 C 8.8261362 63.423328 8.9158871 63.523115 9.0087889 63.620116 C 9.0336629 63.645706 9.0606933 63.668268 9.0859373 63.693358 C 9.0996403 63.706958 9.1140865 63.719917 9.1279295 63.733397 C 9.2412281 63.84387 9.3578744 63.949378 9.4785154 64.049803 C 9.4822554 64.052903 9.4855056 64.056469 9.4892576 64.059569 C 9.4982376 64.066969 9.5075873 64.073673 9.5166013 64.081053 C 9.624407 64.169293 9.7350379 64.253667 9.8486326 64.333983 C 9.8811596 64.357063 9.9143384 64.378986 9.9472654 64.401366 C 10.046214 64.468376 10.146784 64.533553 10.25 64.594725 C 10.29313 64.620345 10.33709 64.644444 10.380859 64.668944 C 10.446959 64.705924 10.511311 64.745604 10.579101 64.780272 C 10.597891 64.789872 10.617869 64.795286 10.636719 64.804686 C 10.809807 64.890666 10.986408 64.970594 11.168945 65.040038 C 11.216695 65.058718 11.266415 65.068546 11.314453 65.085936 C 11.676551 65.215404 12.045548 65.320629 12.428711 65.379881 C 12.526881 65.393911 12.624636 65.405678 12.722656 65.415038 C 12.840465 65.426838 12.959767 65.435608 13.079101 65.440428 C 13.156241 65.443528 13.230931 65.431339 13.307617 65.431639 C 13.469537 65.431739 13.631462 65.425844 13.792968 65.413084 C 14.204259 65.382104 14.610934 65.324234 15.008789 65.209959 C 15.058709 65.195249 15.104019 65.172118 15.15332 65.156248 C 15.352853 65.093058 15.549356 65.021627 15.741211 64.937498 C 15.801011 64.911168 15.85918 64.881734 15.917968 64.853514 C 16.015338 64.806934 16.113642 64.762064 16.208984 64.709959 C 16.318049 64.650349 16.433571 64.582109 16.555664 64.505858 C 16.624204 64.461928 16.691822 64.416988 16.758789 64.370116 C 16.826439 64.322506 16.882889 64.263777 16.948242 64.213866 C 17.399872 63.906668 17.867945 63.577886 18.46875 63.080077 C 19.402083 62.306743 20.768359 61.363332 22.568359 60.249999 C 24.368359 59.136665 26.385807 58.03996 28.61914 56.95996 C 30.852473 55.873293 33.272239 54.849647 35.878905 53.889647 C 38.492239 52.929647 40.678476 52.113762 42.438476 51.440428 C 44.198476 50.767095 45.741692 50.073684 47.068358 49.36035 C 48.395025 48.647017 49.832238 47.782863 51.378905 46.76953 C 52.918905 45.756197 54.459022 44.602903 55.999022 43.309569 C 57.532355 42.016236 58.745337 40.636588 59.63867 39.169921 C 60.532004 37.703254 61.095767 36.149765 61.3291 34.509765 C 61.562433 32.869765 61.089178 31.09302 59.909178 29.179687 C 58.722512 27.266353 57.265728 25.739609 55.539061 24.599609 C 53.805728 23.466275 52.205923 22.52694 50.739257 21.780273 C 49.27259 21.033606 47.77259 20.407057 46.239257 19.90039 C 44.71259 19.393723 43.092239 18.797018 41.378905 18.110351 C 39.658905 17.430351 37.245338 16.243138 34.138671 14.549804 C 31.032003 12.856457 28.472317 11.426432 26.458984 10.259765 C 24.44565 9.0997658 22.615416 8.0699217 20.96875 7.1699217 L 18.499023 5.8203124 L 17.958984 5.6103514 C 17.605651 5.4636848 17.238398 5.3629035 16.858398 5.3095702 C 16.668398 5.2795702 16.479349 5.2628122 16.291015 5.2578124 z M 53.282225 61.564452 C 53.195425 61.563961 53.109114 61.569541 53.02246 61.573241 C 53.00832 61.573766 52.994618 61.571641 52.980468 61.572264 C 52.974068 61.57255 52.961587 61.57577 52.955077 61.57617 C 52.769787 61.5864 52.585019 61.602464 52.400389 61.631834 C 52.017809 61.692014 51.647672 61.789784 51.290038 61.924803 C 50.699526 62.089686 49.982254 62.311878 49.139647 62.591795 C 47.172981 63.238462 45.146236 63.861913 43.059569 64.461913 C 40.972903 65.061913 38.947135 65.518696 36.980468 65.83203 C 35.013801 66.145363 32.552942 66.755441 29.599609 67.662108 C 26.646275 68.562108 24.473411 69.255519 23.080078 69.742186 C 21.693411 70.228853 20.086432 70.712381 18.259765 71.192381 C 16.439765 71.672381 14.380078 72.185754 12.080078 72.73242 L 8.6396482 73.561522 L 8.0703123 73.801756 C 7.696979 73.955089 7.3461978 74.1516 7.0195311 74.3916 C 6.6928644 74.638266 6.3965493 74.919087 6.1298827 75.23242 C 5.8698827 75.545753 5.653802 75.885285 5.4804686 76.251951 C 5.3004686 76.618618 5.1667447 76.998266 5.080078 77.3916 C 4.993411 77.7916 4.9563931 78.191795 4.9697264 78.591795 C 4.9830594 78.998462 5.0468224 79.398657 5.1601561 79.79199 C 5.2668228 80.185324 5.4201171 80.558774 5.6201171 80.912107 C 5.8201171 81.265441 6.0598436 81.5916 6.3398436 81.8916 C 6.6198436 82.184933 6.9336066 82.445206 7.2802733 82.671873 C 7.6202733 82.891873 7.9834503 83.068813 8.370117 83.202146 C 8.7567837 83.328813 9.1529034 83.412146 9.5595701 83.452146 C 9.9529034 83.485476 10.353099 83.472107 10.759765 83.412107 C 11.159765 83.352107 12.486901 82.959087 14.740234 82.23242 C 16.993567 81.51242 18.996666 80.938384 20.75 80.511717 C 22.503333 80.08505 24.176197 79.648813 25.769531 79.202147 C 27.356197 78.75548 29.576353 78.172147 32.429687 77.452147 C 35.276353 76.72548 37.503684 76.241951 39.110351 76.001951 C 40.717017 75.761951 42.846666 75.372029 45.499999 74.832029 C 48.153332 74.292029 50.300428 73.762186 51.940428 73.242186 C 53.587095 72.722186 54.407056 72.461912 54.400389 72.461912 L 55.240233 72.1416 C 55.282633 72.12494 55.322463 72.104522 55.364257 72.086912 C 55.387247 72.077312 55.409756 72.066559 55.432616 72.056639 C 55.650972 71.961079 55.863064 71.856442 56.064452 71.734373 C 56.140342 71.688833 56.21577 71.641303 56.290038 71.591795 C 56.311728 71.577335 56.330131 71.55964 56.351561 71.54492 C 56.491758 71.44694 56.62851 71.344373 56.759764 71.23242 C 56.763464 71.22932 56.766766 71.225755 56.770506 71.222655 C 56.845986 71.159105 56.918649 71.092838 56.990233 71.025389 C 57.129142 70.896496 57.263775 70.763612 57.387694 70.621092 C 57.453954 70.543612 57.51798 70.46348 57.580077 70.381834 C 57.584977 70.375534 57.588879 70.368643 57.593749 70.362303 C 57.659589 70.276293 57.722259 70.187139 57.783202 70.096678 C 57.811752 70.054478 57.840893 70.012608 57.868163 69.969725 C 57.884933 69.943265 57.903551 69.91843 57.919921 69.8916 C 57.958271 69.82958 57.990711 69.765366 58.026366 69.702147 C 58.043306 69.671737 58.061784 69.642056 58.078124 69.611326 C 58.307937 69.184639 58.480681 68.732262 58.589842 68.251952 C 58.614162 68.139332 58.634902 68.026926 58.652342 67.914061 C 58.688412 67.691757 58.705779 67.466387 58.712889 67.239256 C 58.713637 67.216786 58.715419 67.194353 58.715819 67.171873 C 58.716439 67.138563 58.719725 67.105674 58.719725 67.072264 C 58.721925 66.874486 58.709688 66.677976 58.690428 66.48242 C 58.675878 66.334636 58.654748 66.187529 58.627928 66.041014 C 58.583768 65.799777 58.527616 65.560061 58.450194 65.322264 C 58.438604 65.288294 58.421348 65.257291 58.409178 65.223631 C 58.355898 65.071514 58.297549 64.921126 58.230467 64.772459 C 58.206387 64.719089 58.180882 64.665571 58.155272 64.61328 C 58.031628 64.363758 57.890643 64.123816 57.731444 63.893553 C 57.698474 63.845863 57.664374 63.798813 57.629881 63.751952 C 57.555871 63.653262 57.470274 63.567094 57.390624 63.474608 C 57.341964 63.418268 57.301184 63.356303 57.249999 63.301756 C 57.232209 63.282816 57.212335 63.266695 57.194335 63.248045 C 57.151265 63.203365 57.107045 63.160245 57.062499 63.117186 C 56.911958 62.971323 56.757209 62.832299 56.592772 62.706053 C 56.513872 62.646103 56.432247 62.588062 56.349608 62.532225 C 56.271848 62.478635 56.193195 62.427214 56.11328 62.377928 C 56.02388 62.323548 55.932768 62.271082 55.839842 62.221678 C 55.680952 62.135198 55.519819 62.057775 55.355467 61.98828 C 55.15755 61.90459 54.954859 61.834439 54.749022 61.775389 C 54.746022 61.774524 54.743233 61.773259 54.740233 61.772459 C 54.729953 61.769559 54.719273 61.7694 54.708983 61.7666 C 54.531839 61.71725 54.352902 61.67279 54.169921 61.6416 C 54.078621 61.62621 53.98762 61.617254 53.896483 61.606444 C 53.881183 61.604644 53.865905 61.602284 53.850585 61.600584 C 53.660919 61.579684 53.471207 61.565522 53.282225 61.564452 z " />
</svg>
