<?xml version="1.0" encoding="UTF-8" standalone="no"?>
<svg
   version="1.1"
   viewBox="0 0 61.5 39.5"
   width="123"
   height="79"
   id="svg12"
   sodipodi:docname="harpoon.svg"
   inkscape:version="1.2.2 (b0a8486541, 2022-12-01)"
   xmlns:inkscape="http://www.inkscape.org/namespaces/inkscape"
   xmlns:sodipodi="http://sodipodi.sourceforge.net/DTD/sodipodi-0.dtd"
   xmlns="http://www.w3.org/2000/svg"
   xmlns:svg="http://www.w3.org/2000/svg">
  <sodipodi:namedview
     id="namedview14"
     pagecolor="#ffffff"
     bordercolor="#000000"
     borderopacity="0.25"
     inkscape:showpageshadow="2"
     inkscape:pageopacity="0.0"
     inkscape:pagecheckerboard="0"
     inkscape:deskcolor="#d1d1d1"
     showgrid="false"
     inkscape:zoom="2.9873418"
     inkscape:cx="61.760593"
     inkscape:cy="39.5"
     inkscape:window-width="1472"
     inkscape:window-height="851"
     inkscape:window-x="0"
     inkscape:window-y="32"
     inkscape:window-maximized="1"
     inkscape:current-layer="svg12" />
  <!-- svg-source:excalidraw -->
  <metadata
     id="metadata2" />
  <defs
     id="defs6">
    <style
       class="style-fonts"
       id="style4" />
  </defs>
  <path
     fill="#1e1e1e"
     d="m 10,22.17 c 6.197708,-0.172994 12.372942,0.547516 18.558906,0.808125 5.163914,0.572817 10.369047,0.253717 15.529961,-0.117188 3.085233,-0.04806 0.67438,5.407421 -1.285039,2.68461 -3.297175,-3.321812 -5.982908,-7.309387 -9.997226,-9.85457 -2.087039,-1.287728 -3.443195,-3.653223 -3.200977,-6.1311333 0.131387,-4.0361109 4.330765,-7.2560567 8.2625,-6.319375 3.988613,0.673762 6.593622,5.2720125 5.144062,9.0423443 -1.210034,3.857819 -6.115302,5.817697 -9.656093,3.873281 -3.653881,-1.721835 -4.934359,-6.8438814 -2.533281,-10.0882815 2.195391,-3.3738279 7.416202,-3.9724021 10.316082,-1.179314 1.735828,1.4148098 3.76483,2.4723859 5.221144,4.2254078 3.374369,3.5723137 6.327821,7.5297847 9.079141,11.5918357 1.1976,1.867931 2.132415,4.126069 1.391718,6.356211 -0.788688,3.1834 -2.77759,6.462083 -6.167148,7.289297 -4.146579,1.358574 -8.593103,1.082283 -12.895469,1.266094 -4.016704,0.155599 -7.975285,-0.546986 -11.924375,-1.1575 C 21.996445,34.114852 18.185785,33.487668 14.361836,32.970469 11.639007,32.617619 8.3876206,33.462699 6.26125,31.2425 3.7492011,28.900915 4.4404248,24.295419 7.5475,22.8175 8.3054859,22.405044 9.1529832,22.25872 10,22.17 Z"
     id="path8"
     style="stroke:none" />
</svg>
