<?xml version="1.0" encoding="UTF-8" standalone="no"?>
<svg
   version="1.1"
   viewBox="0 0 65.62798364236824 85.59022648590508"
   width="131.25596728473647"
   height="171.18045297181015"
   id="svg2"
   sodipodi:docname="leq.svg"
   inkscape:version="1.4.2 (ebf0e940d0, 2025-05-08)"
   xmlns:inkscape="http://www.inkscape.org/namespaces/inkscape"
   xmlns:sodipodi="http://sodipodi.sourceforge.net/DTD/sodipodi-0.dtd"
   xmlns="http://www.w3.org/2000/svg"
   xmlns:svg="http://www.w3.org/2000/svg">
  <sodipodi:namedview
     id="namedview2"
     pagecolor="#ffffff"
     bordercolor="#000000"
     borderopacity="0.25"
     inkscape:showpageshadow="2"
     inkscape:pageopacity="0.0"
     inkscape:pagecheckerboard="0"
     inkscape:deskcolor="#d1d1d1"
     inkscape:zoom="3.4933896"
     inkscape:cx="65.55238"
     inkscape:cy="85.590225"
     inkscape:window-width="1472"
     inkscape:window-height="851"
     inkscape:window-x="0"
     inkscape:window-y="0"
     inkscape:window-maximized="1"
     inkscape:current-layer="svg2" />
  <!-- svg-source:excalidraw -->
  <metadata
     id="metadata1" />
  <defs
     id="defs1">
    <style
       class="style-fonts"
       id="style1" />
  </defs>
  <path
     d="m 52.666016,5.2578126 c -0.19,0.005 -0.379336,0.021758 -0.569336,0.051758 -0.38,0.053333 -0.747252,0.1541146 -1.100586,0.3007812 -0.36,0.14 -1.363099,0.6595704 -3.009765,1.5595704 -1.646667,0.9 -3.476901,1.9298437 -5.490235,3.089844 -2.013333,1.166666 -4.573021,2.596706 -7.679687,4.290039 -3.106667,1.693333 -5.520235,2.880547 -7.240235,3.560547 -1.713333,0.686666 -3.333685,1.283372 -4.860351,1.790039 -1.533334,0.506667 -3.033334,1.133216 -4.5,1.879883 -1.466667,0.746666 -3.066472,1.686002 -4.799805,2.819336 -1.726667,1.14 -3.183451,2.666745 -4.3701175,4.580078 -1.18,1.913333 -1.6532552,3.690078 -1.4199218,5.330078 0.2333333,1.64 0.7970963,3.19349 1.6904297,4.660156 0.8933336,1.466667 2.1063156,2.846315 3.6396486,4.139649 1.54,1.293333 3.080117,2.446627 4.620117,3.459961 1.546667,1.013333 2.98388,1.877487 4.310547,2.59082 1.326667,0.713333 2.869883,1.406745 4.629883,2.080078 1.76,0.673334 3.946237,1.489219 6.55957,2.449219 2.606667,0.96 5.026433,1.983646 7.259766,3.070313 2.233333,1.08 4.250781,2.176705 6.050781,3.290039 1.8,1.113333 3.166276,2.056745 4.09961,2.830078 0.925052,0.766472 1.391206,1.150139 1.399414,1.15039 0.001,0.0039 0.243083,0.138356 0.724609,0.404297 0.04346,0.024 0.08837,0.04906 0.135742,0.0752 0.01777,0.0097 0.03685,0.01587 0.05469,0.02539 0.216044,0.115313 0.436438,0.221314 0.666015,0.308594 0.153471,0.05835 0.310209,0.110431 0.469727,0.15625 0.112026,0.03302 0.224054,0.06252 0.336914,0.08887 0.09998,0.0228 0.200935,0.04271 0.302735,0.06055 0.0692,0.01213 0.138731,0.0127 0.208007,0.02246 0.15465,0.02218 0.309638,0.04184 0.465821,0.05176 0.113137,0.0073 0.226504,0.0078 0.339843,0.0088 0.09567,6.47e-4 0.189895,0.0117 0.286133,0.0078 0.100941,-0.0041 0.201613,-0.0113 0.301758,-0.02051 0.116019,-0.01006 0.232403,-0.02343 0.348633,-0.04004 0.385325,-0.05959 0.756095,-0.166278 1.120117,-0.296875 0.04619,-0.01663 0.09364,-0.02516 0.139648,-0.04297 0.182312,-0.06936 0.358363,-0.149501 0.53125,-0.235352 0.01912,-0.0095 0.03954,-0.01467 0.05859,-0.02441 0.04147,-0.0212 0.07932,-0.04727 0.120117,-0.06934 0.108076,-0.05836 0.214111,-0.120486 0.31836,-0.185547 0.05798,-0.0362 0.116342,-0.07224 0.172851,-0.110351 0.154875,-0.104332 0.307053,-0.214249 0.453125,-0.333985 0.0087,-0.0071 0.01673,-0.01431 0.02539,-0.02148 0.166553,-0.138064 0.321439,-0.286261 0.470703,-0.439453 0.304807,-0.312829 0.576861,-0.654359 0.80957,-1.030274 0.05722,-0.09424 0.112134,-0.18963 0.164063,-0.286132 0.05104,-0.09305 0.100002,-0.187972 0.146484,-0.28418 0.01846,-0.03911 0.02831,-0.08074 0.0459,-0.120117 0.107459,-0.239406 0.205309,-0.482857 0.282226,-0.735352 0.03751,-0.123136 0.07132,-0.247774 0.101563,-0.374023 0.0049,-0.02139 0.0051,-0.04305 0.0098,-0.06445 0.04164,-0.18949 0.07673,-0.38037 0.100586,-0.575196 0.0098,-0.0802 0.01293,-0.160239 0.01953,-0.240234 0.0039,-0.04818 0.009,-0.09628 0.01172,-0.144531 0.01614,-0.275979 0.01149,-0.550638 -0.01074,-0.824219 -0.0024,-0.03071 0.0018,-0.06106 -9.76e-4,-0.0918 -0.0022,-0.02193 -0.0093,-0.04258 -0.01172,-0.06445 -0.02079,-0.19222 -0.04809,-0.384164 -0.08789,-0.575195 -0.02222,-0.107778 -0.04742,-0.214757 -0.0752,-0.320313 -0.08333,-0.316667 -0.191862,-0.623255 -0.325195,-0.919922 -0.08858,-0.201512 -0.191368,-0.392541 -0.299805,-0.580078 -0.163769,-0.283232 -0.349526,-0.551379 -0.558594,-0.802734 0,0 0,-9.77e-4 0,-9.77e-4 0,0 -9.76e-4,0 -9.76e-4,0 0,0 -9.77e-4,0 -9.77e-4,0 0,0 0,-9.76e-4 0,-9.76e-4 -0.0016,-0.002 -0.0033,-0.0039 -0.0049,-0.0059 -0.0672,-0.0805 -0.133218,-0.162035 -0.205078,-0.239258 -0.0073,-0.0079 -0.03251,-0.02521 -0.04004,-0.0332 -0.136508,-0.144986 -0.278066,-0.285859 -0.429687,-0.416992 -0.214739,-0.188622 -0.443189,-0.356225 -0.680665,-0.510742 -0.416365,-0.350822 -0.661423,-0.609442 -1.279296,-1.069336 -1.166667,-0.866667 -2.893021,-1.953099 -5.179688,-3.259766 -2.293333,-1.306666 -4.090625,-2.279922 -5.390625,-2.919922 -1.306667,-0.64 -2.676042,-1.260351 -4.109375,-1.860351 -1.44,-0.606667 -3.410156,-1.333021 -5.910156,-2.179688 -2.506667,-0.846666 -4.943881,-1.766432 -7.310547,-2.759765 -2.366667,-1 -4.195925,-1.933138 -5.489258,-2.799805 -1.286667,-0.866667 -2.60043,-1.836823 -3.94043,-2.910156 -1.34,-1.073334 -1.119844,-2.277019 0.660156,-3.610352 1.786667,-1.333333 3.47698,-2.339531 5.070313,-3.019531 1.593333,-0.686667 3.273372,-1.443841 5.040039,-2.270508 1.773333,-0.833333 4.352591,-1.970156 7.739258,-3.410156 3.38,-1.446667 6.126901,-2.699766 8.240234,-3.759766 2.113334,-1.066667 3.986784,-2.063568 5.620118,-2.990235 l 2.440429,-1.379882 0.459961,-0.339844 c 0.313334,-0.226667 0.593177,-0.48694 0.839844,-0.780274 0.253333,-0.293333 0.463216,-0.613294 0.629883,-0.95996 0.173333,-0.34 0.299883,-0.700079 0.379883,-1.080079 0.08667,-0.373333 0.123685,-0.749882 0.110351,-1.1298824 -0.0067,-0.38 -0.06016,-0.7565495 -0.160156,-1.1298829 -0.1,-0.3733333 -0.243997,-0.726237 -0.430664,-1.0595703 -0.186667,-0.34 -0.413021,-0.6506641 -0.679688,-0.9306641 -0.26,-0.28 -0.550117,-0.5259245 -0.870117,-0.7392578 -0.32,-0.2066667 -0.66263,-0.3733333 -1.029297,-0.5 -0.36,-0.1333333 -0.730351,-0.2166667 -1.110351,-0.25 -0.19,-0.02 -0.380313,-0.027461 -0.570313,-0.022461 z"
     style="fill:#1e1e1e"
     id="path4" />
  <path
     d="m 9.716797,58.719727 c -0.082629,0.0043 -0.1654181,0.01928 -0.2480469,0.02734 -0.055776,0.0055 -0.1114556,0.01142 -0.1669922,0.01855 -0.073523,0.0094 -0.1471799,0.01202 -0.2207031,0.02441 -0.1879273,0.03203 -0.3719403,0.07577 -0.553711,0.126953 -0.00514,0.0014 -0.010485,0.0015 -0.015625,0.0029 -0.1469025,0.04221 -0.2912743,0.08967 -0.4326171,0.142578 -0.3708082,0.138795 -0.7192151,0.320821 -1.0517579,0.533203 -0.041162,0.02629 -0.085401,0.0468 -0.1259765,0.07422 -0.4933334,0.34 -0.9202735,0.750468 -1.2802735,1.230468 -0.1068181,0.145112 -0.2056566,0.294234 -0.2978516,0.447266 -0.077349,0.127308 -0.1500172,0.258083 -0.2167968,0.392578 -0.029458,0.05933 -0.05756,0.118961 -0.084961,0.179688 -0.067211,0.148953 -0.1253589,0.300706 -0.1787109,0.453125 -0.012069,0.03341 -0.029513,0.06394 -0.041016,0.09766 -0.1866667,0.566667 -0.2771745,1.15 -0.2705078,1.75 0,0.03283 0.00331,0.06493 0.00391,0.09766 5.373e-4,0.02573 0.00204,0.05143 0.00293,0.07715 0.00736,0.224341 0.024915,0.446385 0.060547,0.666015 0.017437,0.112866 0.038184,0.226247 0.0625,0.338867 0.00736,0.03203 0.020409,0.06193 0.02832,0.09375 0.038862,0.15491 0.083387,0.309417 0.1367187,0.461914 0.00171,0.0049 0.00316,0.0098 0.00488,0.01465 0.087477,0.251797 0.1883218,0.4991 0.3125,0.737305 0.058557,0.112326 0.1207821,0.222727 0.1875,0.332031 0.00331,0.0054 0.00741,0.01022 0.010742,0.01563 0.074278,0.122144 0.1541946,0.240771 0.2382813,0.357422 0.027855,0.03864 0.052123,0.07915 0.081055,0.117187 0.3666666,0.473334 0.8007812,0.876628 1.3007812,1.209961 0.038514,0.02602 0.079122,0.04734 0.1181641,0.07227 0.03273,0.02094 0.066417,0.04033 0.099609,0.06055 0.2039265,0.12396 0.4118682,0.238307 0.6298828,0.333007 0.066421,0.02917 0.1341549,0.05727 0.2021484,0.08398 0.5533334,0.213333 1.6531381,0.580586 3.2998052,1.100586 1.64,0.52 3.787096,1.049844 6.440429,1.589844 2.653334,0.54 4.782982,0.929921 6.389649,1.169921 1.606667,0.24 3.833021,0.723529 6.679687,1.450196 2.853334,0.72 5.07349,1.303333 6.660157,1.75 1.593333,0.446666 3.267174,0.882903 5.020508,1.30957 1.753333,0.426667 3.756432,0.999727 6.009765,1.719727 l 3.379883,1.09082 0.59961,0.08984 c 0.406666,0.06 0.806862,0.07337 1.200195,0.04004 0.406667,-0.04 0.803763,-0.123333 1.19043,-0.25 0.386666,-0.133333 0.749843,-0.310274 1.089843,-0.530274 0.346667,-0.226666 0.659453,-0.48694 0.939453,-0.780273 0.28,-0.293333 0.520704,-0.619492 0.720704,-0.979492 0.2,-0.353334 0.353294,-0.726784 0.459961,-1.120117 0.113333,-0.393334 0.176119,-0.793529 0.189453,-1.200196 0.01333,-0.4 -0.02271,-0.800195 -0.109375,-1.200195 -0.08667,-0.393333 -0.220391,-0.772982 -0.400391,-1.139649 -0.173333,-0.366666 -0.390391,-0.707174 -0.650391,-1.020507 -0.26,-0.313334 -0.556315,-0.593177 -0.889648,-0.839844 -0.326667,-0.24 -0.676471,-0.436511 -1.049805,-0.589844 -0.38,-0.16 -1.716432,-0.516979 -4.009765,-1.070312 -2.3,-0.546667 -4.360665,-1.060039 -6.180665,-1.540039 -1.826666,-0.48 -3.432669,-0.962553 -4.819336,-1.449219 -1.393333,-0.486667 -3.567174,-1.180078 -6.520507,-2.080078 -2.953334,-0.906667 -5.413217,-1.516745 -7.379883,-1.830079 -1.966667,-0.313333 -3.993412,-0.770117 -6.080079,-1.370117 -2.086666,-0.6 -4.113411,-1.22345 -6.080078,-1.870117 l -2.950195,-0.980469 -0.798828,-0.03516 c -0.0088,-5.79e-4 -0.01758,-4.4e-4 -0.02637,-9.77e-4 l -0.06445,-0.0029 c -0.02107,-9.37e-4 -0.04146,0.0027 -0.0625,0.002 -0.163962,-0.0062 -0.3282244,-0.01149 -0.492187,-0.0029 z"
     style="fill:#1e1e1e"
     id="path3" />
</svg>
