<?xml version="1.0" encoding="UTF-8" standalone="no"?>
<svg
   version="1.1"
   viewBox="0 0 60.87506867962111 86.06551798217879"
   width="121.75013735924222"
   height="172.13103596435758"
   id="svg3"
   sodipodi:docname="neq.svg"
   inkscape:version="1.4.2 (ebf0e940d0, 2025-05-08)"
   xmlns:inkscape="http://www.inkscape.org/namespaces/inkscape"
   xmlns:sodipodi="http://sodipodi.sourceforge.net/DTD/sodipodi-0.dtd"
   xmlns="http://www.w3.org/2000/svg"
   xmlns:svg="http://www.w3.org/2000/svg">
  <sodipodi:namedview
     id="namedview3"
     pagecolor="#ffffff"
     bordercolor="#000000"
     borderopacity="0.25"
     inkscape:showpageshadow="2"
     inkscape:pageopacity="0.0"
     inkscape:pagecheckerboard="0"
     inkscape:deskcolor="#d1d1d1"
     inkscape:zoom="3.4740974"
     inkscape:cx="60.879123"
     inkscape:cy="86.065521"
     inkscape:window-width="1472"
     inkscape:window-height="851"
     inkscape:window-x="0"
     inkscape:window-y="0"
     inkscape:window-maximized="1"
     inkscape:current-layer="svg3" />
  <!-- svg-source:excalidraw -->
  <metadata
     id="metadata1" />
  <defs
     id="defs1">
    <style
       class="style-fonts"
       id="style1" />
  </defs>
  <path
     id="path1"
     style="stroke:none"
     d="M 45.213866 5.7226561 C 45.0422 5.7209895 44.871171 5.7299999 44.701171 5.7499999 C 44.361171 5.7899999 44.027838 5.8671353 43.701171 5.9804686 C 43.374504 6.1004686 43.067916 6.2568619 42.781249 6.4501952 C 42.494583 6.6501952 42.235286 6.8765493 42.001952 7.1298827 C 41.768619 7.3898827 41.568033 7.6697264 41.401366 7.9697264 C 41.241366 8.2763931 40.757838 9.4769789 39.951171 11.570312 C 39.137838 13.670312 38.291132 15.517018 37.411132 17.110351 C 36.524465 18.703685 35.721952 20.852903 35.001952 23.55957 C 34.818988 24.24738 34.631573 24.915588 34.440429 25.5625 C 31.408289 24.866252 29.041897 24.450047 27.34082 24.315429 C 25.487486 24.168763 23.417526 23.972252 21.130859 23.725585 C 18.837526 23.478919 16.596823 23.29888 14.410156 23.185546 L 11.140625 23.015625 L 10.600586 23.065429 C 10.233919 23.092096 9.873841 23.162057 9.5205076 23.27539 C 9.173841 23.39539 8.8436066 23.55276 8.5302733 23.746093 C 8.2236066 23.946093 7.9406639 24.175546 7.6806639 24.435546 C 7.4273306 24.702213 7.2071743 24.995429 7.0205077 25.315429 C 6.8405077 25.635429 6.6974869 25.972838 6.5908202 26.326171 C 6.4908202 26.672838 6.4342317 27.032916 6.4208983 27.406249 C 6.4008983 27.766249 6.4276431 28.125351 6.5009764 28.485351 C 6.5743098 28.845351 6.6905858 29.192057 6.8505858 29.52539 C 7.0039191 29.852057 7.1973306 30.158645 7.4306639 30.445312 C 7.6639973 30.731979 7.9273696 30.986054 8.220703 31.206054 C 8.5140363 31.426054 8.8308983 31.609192 9.1708983 31.755859 C 9.5108983 31.902525 9.8607029 32.005429 10.220703 32.065429 C 10.580703 32.125429 11.854349 32.189192 14.041015 32.255859 C 16.227682 32.329192 18.376901 32.462916 20.490234 32.656249 C 22.610234 32.849583 24.593763 33.05539 26.440429 33.27539 C 27.762213 33.437631 29.439474 33.655221 31.471679 33.926757 C 31.006534 35.30556 30.536374 36.835967 30.061523 38.519531 C 29.18819 41.632864 28.287994 44.566978 27.361328 47.320312 C 26.596674 49.570578 25.926325 51.375551 25.349609 52.735351 C 23.303045 52.653424 21.372684 52.652886 19.55957 52.734374 C 17.192903 52.834374 15.006666 52.871392 13 52.844726 L 9.9999998 52.794921 L 9.3798826 52.874022 C 8.9665493 52.920689 8.5632551 53.02147 8.1699217 53.174804 C 7.7765884 53.32147 7.4103124 53.514882 7.0703124 53.754882 C 6.7236457 53.988215 6.4098827 54.260884 6.1298827 54.574218 C 5.8498827 54.887551 5.6132551 55.231158 5.4199218 55.604491 C 5.2265884 55.977824 5.0804687 56.367746 4.9804687 56.774413 C 4.8804687 57.18108 4.830078 57.591548 4.830078 58.004882 C 4.830078 58.418215 4.8804687 58.827707 4.9804687 59.234374 C 5.0804687 59.641041 5.2265884 60.030962 5.4199218 60.404296 C 5.6132551 60.777629 5.8498827 61.121236 6.1298827 61.434569 C 6.4098827 61.747902 6.7195702 62.021548 7.0595702 62.254882 C 7.4062368 62.494882 7.7765884 62.687317 8.1699217 62.833983 C 8.5632551 62.987317 8.9665493 63.088098 9.3798826 63.134764 C 9.793216 63.188098 11 63.197395 13 63.164061 C 15.006666 63.137395 17.192903 63.174413 19.55957 63.274413 C 19.944227 63.291701 20.330213 63.311341 20.716796 63.333007 C 20.462196 64.033755 20.210841 64.759094 19.961914 65.509764 C 19.115247 68.076431 18.341601 70.246197 17.641601 72.01953 L 16.582031 74.679686 L 16.461914 75.330077 C 16.410257 75.614187 16.391873 75.898505 16.401367 76.182616 C 16.401583 76.191749 16.40109 76.200821 16.401367 76.20996 C 16.401573 76.214569 16.402123 76.219025 16.402343 76.223631 C 16.408569 76.365853 16.419857 76.508167 16.441406 76.650389 C 16.46654 76.816271 16.500837 76.978445 16.544922 77.137694 C 16.578085 77.259852 16.616847 77.380621 16.661132 77.499999 C 16.666801 77.514641 16.675822 77.527432 16.68164 77.541991 C 16.72935 77.663176 16.782278 77.783337 16.841797 77.900389 C 16.865968 77.947927 16.893997 77.992692 16.919922 78.039061 C 16.936999 78.069577 16.952864 78.100765 16.970703 78.130858 C 17.059497 78.280376 17.158961 78.422614 17.266601 78.559569 C 17.28648 78.585337 17.300766 78.614237 17.321289 78.639647 C 17.46967 78.819824 17.63213 78.985519 17.808593 79.135741 C 18.036475 79.335946 18.289421 79.501496 18.558593 79.64453 C 18.573653 79.652707 18.588364 79.661955 18.603515 79.66992 C 18.633651 79.685436 18.660761 79.704913 18.691406 79.719725 C 18.72608 79.736484 18.762877 79.74601 18.797851 79.761717 C 18.929915 79.821843 19.063492 79.877128 19.202148 79.921873 C 19.255496 79.939169 19.310253 79.951795 19.364257 79.966795 C 19.416661 79.981217 19.468172 79.997461 19.521484 80.009764 C 19.623152 80.03479 19.725113 80.056288 19.827148 80.073241 C 19.868451 80.079546 19.90951 80.084792 19.951171 80.089842 C 19.973696 80.092572 19.996048 80.090409 20.018554 80.092772 C 20.210841 80.115187 20.404072 80.123315 20.597656 80.117186 C 20.604476 80.116945 20.611345 80.116484 20.618164 80.116209 C 20.689454 80.113582 20.760565 80.116847 20.832031 80.11035 C 20.935243 80.099403 21.034364 80.072602 21.135742 80.054686 C 21.177636 80.047624 21.219887 80.048404 21.261718 80.040038 C 21.31144 80.030244 21.359247 80.016378 21.408203 80.004881 C 21.444876 79.995994 21.482129 79.98932 21.518554 79.979491 C 21.695609 79.932734 21.867386 79.87327 22.034179 79.803709 C 22.056351 79.794674 22.079489 79.78968 22.101562 79.780272 C 22.129921 79.767719 22.1566 79.752392 22.18457 79.739256 C 22.201599 79.731304 22.218433 79.723041 22.235351 79.714842 C 22.31664 79.675299 22.396663 79.633423 22.474609 79.588866 C 22.480068 79.58574 22.485763 79.58323 22.491211 79.580077 C 22.495705 79.577442 22.499424 79.573936 22.503906 79.571288 C 22.691049 79.462186 22.868468 79.338513 23.036132 79.200194 C 23.040573 79.196537 23.044403 79.19215 23.048828 79.188475 C 23.099965 79.145921 23.151857 79.104858 23.201171 79.059569 C 23.222099 79.04035 23.241229 79.019601 23.261718 78.999999 C 23.281995 78.980638 23.30139 78.960221 23.321289 78.940428 C 23.380934 78.881001 23.439343 78.820626 23.495117 78.757811 C 23.500495 78.75177 23.506371 78.74631 23.511718 78.740233 C 23.518045 78.733044 23.523026 78.724995 23.529296 78.717772 C 23.592331 78.644921 23.650065 78.56754 23.708007 78.490233 C 23.804242 78.362537 23.892307 78.230176 23.972656 78.092772 C 23.987622 78.067248 24.006981 78.045459 24.021484 78.01953 C 24.030292 78.003565 24.039406 77.987145 24.048828 77.968749 C 24.10791 77.858902 24.16256 77.745673 24.211914 77.629881 C 24.25195 77.53059 24.287969 77.430907 24.320312 77.330077 C 24.539987 76.753933 24.833226 75.88346 25.201171 74.719725 C 25.781171 72.899725 26.511601 70.846236 27.391601 68.559569 C 27.973768 67.042406 28.584076 65.556476 29.221679 64.100585 C 30.564454 64.231852 31.700142 64.322608 32.629882 64.374022 C 34.069882 64.460689 35.599726 64.574843 37.219726 64.714843 C 38.839726 64.848176 40.61957 65.028215 42.55957 65.254882 L 45.469726 65.583983 L 46.340819 65.468749 C 46.342793 65.468527 46.344706 65.467996 46.346679 65.467772 L 46.450194 65.4541 C 47.110194 65.367434 47.739843 65.178098 48.339843 64.884764 C 48.562966 64.771949 48.77822 64.647125 48.984374 64.510741 C 49.144225 64.406531 49.299323 64.294727 49.450194 64.174803 C 49.597564 64.055774 49.738086 63.931054 49.872069 63.80078 C 49.894862 63.778953 49.917908 63.756578 49.940429 63.734374 C 49.985033 63.689132 50.028207 63.643016 50.071288 63.596678 C 50.178499 63.48202 50.281209 63.363861 50.378905 63.24121 C 50.579418 62.990839 50.753196 62.721298 50.914062 62.442382 C 50.952649 62.375334 50.993454 62.309356 51.029296 62.24121 C 51.048487 62.204973 51.071289 62.17146 51.089843 62.134764 C 51.138771 62.035796 51.181245 61.934807 51.224608 61.833983 C 51.226124 61.830485 51.227006 61.826742 51.228515 61.823241 C 51.283283 61.695252 51.333093 61.565543 51.378905 61.434569 C 51.389293 61.404915 51.400228 61.37554 51.410155 61.345702 C 51.435725 61.268824 51.455999 61.1902 51.478515 61.112304 C 51.498553 61.042815 51.522423 60.974754 51.540038 60.904296 C 51.674222 60.383661 51.728144 59.855863 51.719726 59.322265 C 51.719113 59.285156 51.718068 59.248023 51.716796 59.210936 C 51.713633 59.118703 51.717369 59.027188 51.70996 58.934569 C 51.692927 58.725918 51.661837 58.52 51.623046 58.315429 C 51.621192 58.305047 51.622023 58.294558 51.620116 58.284179 C 51.537363 57.861703 51.40835 57.454567 51.240233 57.060546 C 51.236488 57.051825 51.234256 57.042891 51.230468 57.034179 C 51.197584 56.95745 51.154903 56.886545 51.11914 56.811522 C 51.060188 56.68885 51.007917 56.564162 50.940429 56.444335 C 50.927366 56.421409 50.913719 56.398699 50.90039 56.375976 C 50.748278 56.112605 50.569886 55.864359 50.378905 55.624022 C 50.36887 55.611589 50.358767 55.599271 50.348632 55.586913 C 50.291709 55.516382 50.239991 55.44255 50.179687 55.374022 C 49.73302 54.880689 49.219648 54.471197 48.639648 54.14453 C 48.575251 54.108261 48.51053 54.072866 48.445312 54.039061 C 48.316349 53.972926 48.184559 53.911616 48.049804 53.854491 C 47.88805 53.783391 47.724612 53.719996 47.558593 53.664061 C 47.311122 53.58165 47.057894 53.515396 46.799804 53.464843 C 46.14647 53.338176 45.390273 53.271314 44.530273 53.264647 C 43.663606 53.257981 42.273684 53.231236 40.360351 53.184569 C 38.440351 53.131236 36.473294 53.101392 34.45996 53.094726 C 34.197174 53.093855 33.928077 53.091486 33.652343 53.08789 C 34.020303 52.196951 34.449798 51.204573 34.941406 50.110351 C 36.181406 47.350351 37.418033 44.4769 38.651366 41.490234 C 39.577193 39.253237 40.307643 37.224299 40.842773 35.404296 C 41.090738 35.458221 41.327027 35.51183 41.55078 35.565429 C 43.304114 35.985429 45.137447 36.449387 47.05078 36.956054 L 49.910155 37.706054 L 50.640624 37.746093 C 50.745609 37.751846 50.849736 37.751693 50.954101 37.749999 C 51.038574 37.748723 51.122761 37.742497 51.20703 37.736327 C 51.294386 37.729828 51.381832 37.721727 51.468749 37.70996 C 51.515926 37.70365 51.563238 37.703164 51.610351 37.695312 C 51.633052 37.691213 51.65416 37.682146 51.676757 37.677734 C 51.811894 37.652804 51.946986 37.623702 52.081054 37.585937 C 52.121907 37.574264 52.159801 37.555713 52.200194 37.542968 C 52.294251 37.513268 52.386405 37.477925 52.478515 37.442382 C 52.594032 37.397572 52.707787 37.348993 52.819335 37.294921 C 52.872327 37.269598 52.928156 37.252948 52.980468 37.225585 C 53.067422 37.178032 53.152272 37.127732 53.235351 37.075195 C 53.287476 37.043015 53.339449 37.009982 53.390624 36.975585 C 53.632248 36.810475 53.849551 36.616123 54.054686 36.407226 C 54.075755 36.385738 54.099408 36.367653 54.120116 36.345702 C 54.221017 36.240845 54.313772 36.130655 54.402343 36.017577 C 54.414125 36.002507 54.428797 35.990836 54.440429 35.975585 C 54.476382 35.928192 54.508141 35.878672 54.541991 35.830077 C 54.559219 35.805342 54.577067 35.780958 54.593749 35.755859 C 54.655445 35.663237 54.713333 35.568558 54.767577 35.471679 C 54.768632 35.469778 54.769454 35.467723 54.770507 35.46582 C 54.879208 35.270989 54.972164 35.066514 55.05078 34.854492 C 55.061168 34.827117 55.072224 34.799956 55.08203 34.77246 C 55.091082 34.746507 55.10174 34.721517 55.110351 34.695312 C 55.124985 34.651409 55.135199 34.606706 55.148436 34.562499 C 55.163441 34.512471 55.179263 34.46253 55.192382 34.412109 C 55.21192 34.337415 55.228527 34.26207 55.24414 34.186523 C 55.251058 34.152347 55.258575 34.118336 55.264647 34.083984 C 55.275877 34.022371 55.28237 33.959635 55.291015 33.89746 C 55.297226 33.850129 55.305912 33.803518 55.310546 33.755859 C 55.325886 33.615876 55.332857 33.476345 55.33496 33.336913 C 55.335328 33.312818 55.340819 33.2898 55.340819 33.265624 C 55.340819 32.939517 55.30231 32.619798 55.230468 32.305663 L 55.230468 32.304687 C 55.195133 32.150341 55.153265 31.997158 55.100585 31.845703 C 54.993837 31.534356 54.856525 31.241557 54.690429 30.96582 L 54.690429 30.964843 C 54.60769 30.827549 54.518353 30.693893 54.420897 30.565429 C 54.386677 30.521323 54.351037 30.478178 54.315429 30.435546 C 54.185296 30.277602 54.041362 30.1329 53.889647 29.99414 C 53.877211 29.982796 53.865104 29.971167 53.852538 29.95996 C 53.818088 29.929168 53.786513 29.896036 53.750976 29.86621 C 53.496361 29.652516 53.222487 29.469059 52.930663 29.317382 C 52.840318 29.270147 52.748924 29.226168 52.655272 29.185546 C 52.607616 29.164728 52.559316 29.145263 52.510741 29.125976 C 52.48411 29.115402 52.454797 29.103899 52.422851 29.092773 C 52.301432 29.048371 52.17745 29.009483 52.05078 28.975585 C 51.941615 28.946372 51.831554 28.921447 51.721679 28.90039 C 51.076726 28.748308 50.116826 28.563349 48.840819 28.345703 C 46.894902 28.020298 45.034144 27.717454 43.259765 27.436523 C 43.367296 27.152703 43.478371 26.867112 43.591796 26.580078 C 44.565129 24.100078 45.321327 22.022942 45.861327 20.349609 C 46.414661 18.676276 47.104973 16.793528 47.93164 14.700195 L 49.18164 11.570312 L 49.311523 11.05957 C 49.398189 10.726237 49.444504 10.386706 49.451171 10.040039 C 49.451171 9.7000389 49.41203 9.3595311 49.33203 9.0195311 C 49.25203 8.6861977 49.134778 8.3631379 48.981444 8.0498045 C 48.821444 7.7431379 48.628033 7.4601952 48.401366 7.2001952 C 48.1747 6.9401952 47.921601 6.7097655 47.641601 6.5097655 C 47.354934 6.3097655 47.051444 6.1461978 46.731444 6.0195311 C 46.404778 5.8928645 46.071444 5.8064322 45.731444 5.7597655 C 45.558111 5.7364322 45.385533 5.7243228 45.213866 5.7226561 z " />
</svg>
