<?xml version="1.0" encoding="UTF-8" standalone="no"?>
<svg
   width="208"
   height="132"
   viewBox="0 0 104 66"
   version="1.1"
   id="svg1"
   xmlns="http://www.w3.org/2000/svg"
   xmlns:svg="http://www.w3.org/2000/svg">
  <defs
     id="defs1" />
  <path
     d="M 78.25,4.4003906 C 73.808107,4.301341 69.3875,5.667929 65.532271,7.8191328 62.451698,9.7185313 59.73946,12.186102 57.363281,14.905273 54.176256,12.487409 50.121984,11.737296 46.345685,10.707016 43.017485,9.8521639 39.541054,9.6080237 36.149902,10.242461 c -6.900054,0.879785 -13.34066,3.670906 -19.70189,6.335256 -2.081173,0.852097 -4.007213,2.118742 -5.914314,3.223108 -3.3668407,-0.350769 -6.6395588,2.465018 -6.7270564,5.858328 -0.2049602,2.715092 1.6364067,5.416827 4.2343739,6.227536 0.2807181,5.631497 2.0137605,11.138599 4.6520975,16.102989 1.659703,3.821874 4.25439,7.265881 7.789634,9.533859 2.840584,2.000047 6.428007,3.609009 9.934973,2.500891 4.555195,-1.192971 7.205474,-5.420632 10.395366,-8.524895 3.234854,-3.360125 6.418066,-6.769313 9.795908,-9.988321 3.107326,-3.111349 5.746221,-6.639789 8.473037,-10.077648 1.883785,2.590244 3.992624,5.00633 6.39717,7.129216 3.150496,2.82598 5.92543,6.11305 9.413201,8.539553 3.066698,2.170913 7.016883,2.100387 10.583912,1.657685 2.525626,-0.293827 4.807782,-1.637419 6.412304,-3.594956 2.157395,-2.390148 3.825069,-5.208386 5.210138,-8.102161 1.399548,-3.798409 2.438712,-7.795068 2.637859,-11.850392 0.146396,-4.37674 -0.725019,-8.974077 -3.597526,-12.421518 C 93.933819,9.8448516 91.236664,7.0014231 87.586086,5.9623701 84.582862,4.9567001 81.40473,4.5342884 78.25,4.4003906 Z M 75.90332,16.40918 c 2.570118,0.03771 5.147146,0.482998 7.645642,1.063971 3.149799,0.965637 4.127664,4.587924 4.29281,7.513392 0.268353,4.629924 -1.742749,9.077871 -4.446851,12.718965 -1.238125,1.569354 -3.361701,0.804547 -4.680753,-0.209165 -2.956364,-2.083239 -5.282365,-4.911289 -7.894542,-7.388805 -1.933801,-1.977516 -3.58311,-4.203013 -5.321579,-6.347772 2.688412,-2.749558 5.35535,-5.940914 9.144812,-7.136936 0.412456,-0.10942 0.834843,-0.182023 1.260461,-0.21365 z m -35.523437,2.701172 c 3.850728,-0.110077 7.74976,1.24825 10.692383,3.739257 -2.604704,3.621709 -4.847608,7.513409 -7.889864,10.805469 -4.096109,5.03827 -8.753288,9.578489 -13.472441,14.024609 -1.333195,1.790568 -3.683716,0.950387 -4.239194,-1.013523 -2.772608,-4.33516 -5.324705,-9.164932 -5.229292,-14.454342 0.295211,-2.00933 -1.608279,-4.455373 -1.223222,-5.93692 5.75514,-2.928913 11.535997,-6.454716 18.137545,-6.915519 1.072259,-0.111375 2.147568,-0.192557 3.224085,-0.249031 z"
     style="baseline-shift:baseline;display:inline;overflow:visible;vector-effect:none;fill:#1e1e1e;enable-background:accumulate;stop-color:#000000;stop-opacity:1"
     id="path2" />
</svg>
