<?xml version="1.0" encoding="UTF-8" standalone="no"?>
<svg
   version="1.1"
   viewBox="0 0 53.623251150635724 51.701922513456566"
   width="107.24650230127145"
   height="103.40384502691313"
   id="svg14"
   sodipodi:docname="new_angle.svg"
   inkscape:version="1.2.2 (b0a8486541, 2022-12-01)"
   xmlns:inkscape="http://www.inkscape.org/namespaces/inkscape"
   xmlns:sodipodi="http://sodipodi.sourceforge.net/DTD/sodipodi-0.dtd"
   xmlns="http://www.w3.org/2000/svg"
   xmlns:svg="http://www.w3.org/2000/svg">
  <sodipodi:namedview
     id="namedview16"
     pagecolor="#ffffff"
     bordercolor="#000000"
     borderopacity="0.25"
     inkscape:showpageshadow="2"
     inkscape:pageopacity="0.0"
     inkscape:pagecheckerboard="0"
     inkscape:deskcolor="#d1d1d1"
     showgrid="false"
     inkscape:zoom="2.2823135"
     inkscape:cx="-21.031291"
     inkscape:cy="131.44557"
     inkscape:window-width="1472"
     inkscape:window-height="851"
     inkscape:window-x="0"
     inkscape:window-y="752"
     inkscape:window-maximized="1"
     inkscape:current-layer="svg14" />
  <!-- svg-source:excalidraw -->
  <metadata
     id="metadata2" />
  <defs
     id="defs6">
    <style
       class="style-fonts"
       id="style4" />
  </defs>
  <path
     id="path10"
     style="stroke:none"
     d="m 31.740234,5.0078124 c -2.3138,-0.067982 -4.019741,1.7339923 -5.061934,3.6061259 -3.37573,5.0553727 -7.061165,9.9290357 -11.154582,14.4258447 -3.506672,3.514121 -6.5840234,7.449909 -9.1733272,11.682633 -1.254513,2.1378 -2.0477371,4.760941 -0.9980431,7.155721 0.7762495,2.679661 3.027312,4.994688 5.9246003,5.128365 3.80164,0.643908 7.456836,-1.077577 11.241767,-1.137389 6.586151,-0.159018 13.2127,0.361674 19.762623,-0.593753 1.581727,-0.159161 3.335308,0.03158 4.663975,-1.000927 3.192177,-1.814013 4.067563,-6.508496 1.745165,-9.351555 -1.575405,-2.128522 -4.487696,-2.97346 -7.002843,-2.252137 -5.407175,0.847198 -10.896333,0.689122 -16.344096,0.509382 -1.683779,-0.123786 -4.480343,0.481985 -5.464259,0.162035 5.348325,-6.940777 11.323192,-13.425436 16.169826,-20.7414 1.77068,-2.7399527 0.0924,-6.8178491 -3.121685,-7.4555823 -0.388339,-0.092652 -0.78777,-0.1411706 -1.187187,-0.1373633 z" />
</svg>
