<?xml version="1.0" encoding="UTF-8" standalone="no"?>
<svg
   width="90"
   height="130"
   viewBox="0 0 45 65"
   version="1.1"
   id="svg1"
   xmlns="http://www.w3.org/2000/svg"
   xmlns:svg="http://www.w3.org/2000/svg">
  <defs
     id="defs1" />
  <path
     d="M 35.170898,4.3476562 C 32.42272,4.213208 29.811226,6.3545167 29.417861,9.0791029 c -0.236375,2.7852991 0.07376,5.5868091 0.04556,8.3791431 0.05815,4.403549 -0.382194,8.791725 -0.677133,13.180608 -0.429493,3.513995 -1.194074,7.015104 -2.489324,10.316006 -1.130933,2.460237 -2.567895,4.80821 -4.364581,6.839985 -0.777852,0.755381 -1.536605,1.683006 -2.621908,1.969813 -1.231328,0.06438 -1.557253,-1.408491 -1.884896,-2.324014 -1.489564,-4.844433 -2.209947,-9.906907 -2.330813,-14.968377 -0.180854,-3.844384 -0.0509,-7.694039 -0.0038,-11.538382 -0.08447,-1.972712 -1.29606,-3.875181 -3.159339,-4.610661 -2.3732466,-1.044059 -5.3964219,0.108328 -6.4786846,2.462962 -0.8202057,1.670525 -0.4361348,3.584724 -0.4929507,5.37397 0.1263229,3.686891 -0.1558608,7.387137 0.3007813,11.059749 0.5431148,5.001479 1.2368597,9.992904 2.2146969,14.928599 0.4710834,2.239631 1.1788612,4.508202 2.7190551,6.260172 2.584483,3.249089 6.986347,4.402883 10.985193,4.171402 3.770291,-0.255727 7.102407,-2.403448 9.920764,-4.772967 2.425696,-2.072326 3.905279,-4.96751 5.331565,-7.762647 0.969223,-2.196152 2.082256,-4.347849 2.776863,-6.651853 0.855952,-3.399678 1.081861,-6.922767 1.27159,-10.412142 0.182125,-4.907776 -0.274611,-9.816102 -0.0079,-14.723301 0.04541,-2.119038 0.215012,-4.24272 0.236041,-6.3584624 C 40.547551,8.2254526 39.842781,6.5547847 38.457983,5.5351546 37.524675,4.8007381 36.355325,4.3918304 35.170898,4.3476562 Z"
     style="baseline-shift:baseline;display:inline;overflow:visible;vector-effect:none;fill:#1e1e1e;enable-background:accumulate;stop-color:#000000;stop-opacity:1"
     id="path2" />
</svg>
