<?xml version="1.0" encoding="UTF-8" standalone="no"?>
<svg
   version="1.1"
   viewBox="0 0 83.28107596825339 65.0048398291874"
   width="166.56215193650678"
   height="130.0096796583748"
   id="svg16"
   sodipodi:docname="to.svg"
   inkscape:version="1.2.2 (b0a8486541, 2022-12-01)"
   xmlns:inkscape="http://www.inkscape.org/namespaces/inkscape"
   xmlns:sodipodi="http://sodipodi.sourceforge.net/DTD/sodipodi-0.dtd"
   xmlns="http://www.w3.org/2000/svg"
   xmlns:svg="http://www.w3.org/2000/svg">
  <sodipodi:namedview
     id="namedview18"
     pagecolor="#ffffff"
     bordercolor="#000000"
     borderopacity="0.25"
     inkscape:showpageshadow="2"
     inkscape:pageopacity="0.0"
     inkscape:pagecheckerboard="0"
     inkscape:deskcolor="#d1d1d1"
     showgrid="false"
     inkscape:zoom="3.3326847"
     inkscape:cx="109.9714"
     inkscape:cy="66.913021"
     inkscape:window-width="1472"
     inkscape:window-height="851"
     inkscape:window-x="0"
     inkscape:window-y="32"
     inkscape:window-maximized="1"
     inkscape:current-layer="svg16" />
  <!-- svg-source:excalidraw -->
  <metadata
     id="metadata2" />
  <defs
     id="defs6">
    <style
       class="style-fonts"
       id="style4" />
  </defs>
  <path
     id="path8"
     style="stroke:none"
     d="m 50.540041,4.3427736 c -3.790844,-0.1178076 -6.728683,4.1556211 -5.260758,7.6474494 2.516893,4.298467 5.998031,7.985931 8.95956,11.992903 2.066025,2.562194 3.950192,5.273268 6.113684,7.754167 -10.595811,0.540821 -21.195962,-0.519302 -31.787163,0.186413 -6.41488,0.399429 -12.85894,-0.338219 -19.265573,0.06945 -3.9740659,0.367987 -5.573247,6.029421 -2.3872462,8.431797 2.6336975,2.02196 6.1259412,0.751527 9.1659472,0.859547 6.120799,-0.530182 12.259238,-0.676667 18.397355,-0.378779 6.774589,-0.08004 13.523589,0.584427 20.268281,1.135286 -3.011164,3.217288 -6.258518,6.2401 -9.090819,9.612309 -2.435205,3.058915 -0.434485,8.109635 3.399361,8.728574 2.726534,0.67926 5.117704,-1.207995 6.666607,-3.242498 4.644028,-5.344984 9.644251,-10.357838 14.933011,-15.064152 3.430447,-1.756948 7.010728,-4.617809 7.728516,-8.600587 C 78.899305,29.267929 74.305568,28.588063 72.1333,26.125168 65.440854,20.671454 60.020589,13.875757 55.231598,6.7405055 54.13589,5.2636391 52.39273,4.3268095 50.540041,4.3427736 Z" />
</svg>
